<?xml version="1.0" encoding="UTF-8"?>
<svg width="60px" height="60px" viewBox="0 0 60 60" version="1.1" xmlns="http://www.w3.org/2000/svg" xmlns:xlink="http://www.w3.org/1999/xlink">
    <!-- Generator: Sketch 57.1 (83088) - https://sketch.com -->
    <title>img-dark-mode</title>
    <desc>Created with Sketch.</desc>
    <g id="Website-Design" stroke="none" stroke-width="1" fill="none" fill-rule="evenodd">
        <g id="img-dark-mode">
            <circle id="Oval-2-Copy-3" stroke="#FFFFFF" cx="30" cy="30" r="29.5"></circle>
            <path d="M46.3535107,32.5961623 C45.9405088,40.4382322 39.1692636,46.5807493 30.9361902,46.5807493 C30.572862,46.5807493 30.207405,46.5686857 29.8412383,46.5431391 C25.3663408,46.2372906 21.903369,44.1389284 19.0634483,39.9783949 C20.5373402,40.3679793 22.0176187,40.5645455 23.4837047,40.5645455 C29.0932931,40.5645455 34.2465925,37.669274 37.2681773,32.8189847 C39.969721,28.4824641 40.4813609,23.2376231 38.7363921,18.4795851 C43.8421466,21.4713656 46.6657459,26.6487922 46.3535107,32.5961623 M38.028186,16.4990207 C44.4985501,19.591568 48.1403474,25.6368665 47.7706326,32.670673 C47.3186012,41.2670746 39.9235954,48 30.9361902,48 C30.5402193,48 30.1428291,47.9865171 29.7440196,47.9595514 C24.2061033,47.5799018 20.0980821,44.7541736 16.8174841,39.0651071 C16.6677531,38.8053842 16.6968478,38.4789566 16.8912851,38.2511668 C17.0857225,38.0219578 17.4043442,37.9431894 17.683227,38.0467947 C19.6112791,38.77558 21.5634585,39.1452948 23.4837047,39.1452948 C28.6001035,39.1452948 33.3027908,36.4998114 36.0632334,32.0689107 C38.859867,27.5798207 39.1139128,22.2562112 36.7600855,17.4634016 C36.6543513,17.2476755 36.6649957,16.9936296 36.7877609,16.7871286 C36.8935965,16.610736 37.0692939,16.4896073 37.2688248,16.4527896 L37.3703633,16.4415411 L37.7003391,16.4308967 C37.8138792,16.413156 37.926,16.4500566 38.028186,16.4990207 Z M24.9161544,20.7626628 C25.3432199,20.7626628 25.730992,21.0013549 25.9173926,21.3683768 L25.9671096,21.4822229 L27.288432,24.9948684 L31.3496179,25.0707983 C31.8236477,25.0828619 32.2401978,25.3816142 32.3892191,25.8159049 C32.5317893,26.2223267 32.4069304,26.6803576 32.0850185,26.9698059 L31.9826038,27.0513627 L28.794257,29.2866826 L29.945979,32.8042955 C30.0950003,33.2655519 29.9239806,33.7580319 29.521623,34.0319473 C29.3314434,34.1618088 29.1100403,34.2292232 28.8801217,34.2292232 C28.7024315,34.2292232 28.5301912,34.1892571 28.3746641,34.1125948 L28.2613284,34.0482687 L24.9161544,31.8938461 L21.568142,34.049688 C21.1892021,34.2909606 20.679691,34.2838643 20.3113955,34.0333666 C19.9423903,33.7817721 19.7686787,33.3513052 19.8526395,32.9301684 L19.8856203,32.8042955 L21.0366326,29.2866826 L17.8489955,27.0513627 C17.4516053,26.7731895 17.2848433,26.2636785 17.4430898,25.8116472 C17.5766284,25.4213532 17.9330245,25.1377963 18.3502,25.0809357 L18.4770139,25.0707983 L22.5424576,24.9948684 L23.8644897,21.4786747 C24.0255746,21.050061 24.4478017,20.7626628 24.9161544,20.7626628 Z M17.9602647,13 C18.3463009,13 18.6904692,13.24624 18.8153633,13.6124067 L18.8153633,13.6124067 L19.3617748,15.1643573 L21.0336522,15.1970001 C21.4253654,15.210483 21.7603085,15.4616904 21.8773967,15.8243089 C21.9951945,16.195443 21.8660427,16.5970909 21.5573557,16.8277192 L21.5573557,16.8277192 L20.2339044,17.8204851 L20.7143208,19.3930149 C20.8271512,19.7627297 20.693032,20.1622487 20.3807968,20.3893289 C20.2388718,20.4986112 20.0494018,20.5624774 19.8492875,20.5624774 C19.6633656,20.5624774 19.48454,20.5071267 19.3333898,20.4013925 L19.3333898,20.4013925 L17.9602647,19.4554619 L16.5850108,20.4028117 C16.2841297,20.6142801 15.8477101,20.6121512 15.5411519,20.3900385 C15.230336,20.1643776 15.0947976,19.7669874 15.2040799,19.3994015 L15.2040799,19.3994015 L15.6873347,17.8204851 L14.3617546,16.8262999 C14.0544868,16.5978006 13.9260446,16.195443 14.0424231,15.8278571 C14.1623498,15.4609807 14.497293,15.210483 14.8769426,15.1977097 L14.8769426,15.1977097 L16.5594643,15.1643573 L17.1065854,13.6067297 C17.2300603,13.24624 17.5735189,13 17.9602647,13 Z" id="Combined-Shape" fill="#FFFFFF"></path>
        </g>
    </g>
</svg>