<?xml version="1.0" encoding="UTF-8"?>
<svg width="60px" height="60px" viewBox="0 0 60 60" version="1.1" xmlns="http://www.w3.org/2000/svg" xmlns:xlink="http://www.w3.org/1999/xlink">
    <!-- Generator: Sketch 57.1 (83088) - https://sketch.com -->
    <title>img-unlimited-timer</title>
    <desc>Created with Sketch.</desc>
    <g id="Website-Design" stroke="none" stroke-width="1" fill="none" fill-rule="evenodd">
        <g id="img-unlimited-timer">
            <circle id="Oval-2-Copy" stroke="#FFFFFF" cx="30" cy="30" r="29.5"></circle>
            <path d="M31.8466828,11 C32.3896318,11 32.8366323,11.4059884 32.8938193,11.9348866 L32.9,12.05 C32.9,12.629899 32.4225471,13.1 31.8466828,13.1 L30.799,13.1 L30.7994943,13.8149222 C39.3667625,14.1811554 46.2,21.2425836 46.2,29.9 C46.2,38.7917845 38.9917845,46 30.1,46 C21.2082155,46 14,38.7917845 14,29.9 C14,21.2429218 20.8327037,14.1817071 29.3995017,13.8149652 L29.399,13.1 L28.3533172,13.1 C27.7715862,13.1 27.3,12.6339419 27.3,12.05 C27.3,11.470101 27.7774529,11 28.3533172,11 L31.8466828,11 Z M30.1,15.2 C21.9814142,15.2 15.4,21.7814142 15.4,29.9 C15.4,38.0185858 21.9814142,44.6 30.1,44.6 C38.2185858,44.6 44.8,38.0185858 44.8,29.9 C44.8,21.7814142 38.2185858,15.2 30.1,15.2 Z M30.1,18.7 C30.4865993,18.7 30.8,19.0187139 30.8,19.3942622 L30.8002742,28.6874538 C31.218584,28.9295594 31.5,29.3819156 31.5,29.9 C31.5,30.4180844 31.218584,30.8704406 30.8002742,31.1125462 L30.8,32.0057378 C30.8,32.3572157 30.5389212,32.6476905 30.1955521,32.6936622 L30.1,32.7 C29.7134007,32.7 29.4,32.3812861 29.4,32.0057378 L29.3987245,31.1119662 C28.980967,30.8697186 28.7,30.417671 28.7,29.9 C28.7,29.382329 28.980967,28.9302814 29.3987245,28.6880338 L29.4,19.3942622 C29.4,19.0427843 29.6610788,18.7523095 30.0044479,18.7063378 L30.1,18.7 Z" id="Combined-Shape" fill="#FFFFFF"></path>
        </g>
    </g>
</svg>