<?xml version="1.0" encoding="UTF-8"?>
<svg width="60px" height="60px" viewBox="0 0 60 60" version="1.1" xmlns="http://www.w3.org/2000/svg" xmlns:xlink="http://www.w3.org/1999/xlink">
    <!-- Generator: Sketch 57.1 (83088) - https://sketch.com -->
    <title>img-background-audio</title>
    <desc>Created with Sketch.</desc>
    <g id="Website-Design" stroke="none" stroke-width="1" fill="none" fill-rule="evenodd">
        <g id="img-background-audio">
            <circle id="Oval-2-Copy-2" stroke="#FFFFFF" cx="30" cy="30" r="29.5"></circle>
            <path d="M30.9303884,41.8776577 C30.9040537,42.0212114 30.7759388,42.5926112 30.4221994,42.5926112 C30.3076077,42.5926112 30.0499545,42.5510932 29.6136522,42.2745413 C27.9581233,41.2246293 23.6534635,37.5977884 21.2349394,35.5289269 C21.105401,35.4184468 20.9402752,35.3572254 20.7694554,35.3572254 L20.6021943,24.7856245 C20.7730141,24.7856245 20.9388517,24.7244031 21.0683901,24.6139231 C25.3388859,20.9568233 28.3737849,18.5114853 29.6136522,17.7254587 C30.0499545,17.4482031 30.3076077,17.4073888 30.4221994,17.4073888 C30.7773623,17.4073888 30.9047654,17.9851219 30.9303884,18.1209349 L30.9303884,41.8776577 Z M30.4221994,16 C31.7588646,16 32.2663418,17.2983162 32.353887,18.0674541 L32.353043,25.7827016 C32.3521647,32.7760752 32.3506718,41.9978439 32.3489047,42.0148781 C32.2670536,42.7016838 31.7588646,44 30.4221994,44 C29.9346511,44 29.4186329,43.8233727 28.8456747,43.4595627 C27.2903877,42.4734826 23.7067262,39.4951638 20.7930113,37.011264 L20.5039729,36.7646142 L14.6085534,36.7646142 C13.7709827,36.7646142 13.0807001,36.1281487 13.0065871,35.3182 L13,35.1735612 L13,24.9699925 C13,24.1412359 13.6437509,23.4581007 14.4623712,23.3847547 L14.6085534,23.3782357 L20.3374235,23.3782357 C23.3659168,20.7886404 27.2214628,17.5699422 28.8456747,16.5404373 C29.4186329,16.1766273 29.9346511,16 30.4221994,16 Z M43.3857293,19.7135743 C46.3615531,22.5290555 48,26.3121166 48,30.3661 C48,34.418676 46.3615531,38.2024408 43.3857293,41.0186258 C43.2476499,41.1495129 43.0704243,41.2142528 42.8939105,41.2142528 C42.7060087,41.2142528 42.5195304,41.1410686 42.3793158,40.9968113 C42.1074275,40.7167409 42.117392,40.2705986 42.40138,40.0017874 C45.0939276,37.45371 46.5765014,34.0316441 46.5765014,30.3661 C46.5765014,26.6998522 45.0939276,23.2777864 42.40138,20.7304127 C42.117392,20.4616014 42.1074275,20.0168665 42.3793158,19.7353888 C42.651204,19.4553184 43.1017413,19.444763 43.3857293,19.7135743 Z M39.8218551,23.2272326 C41.905857,25.1567626 43.0531969,27.7653577 43.0531969,30.5723947 C43.0531969,33.380839 41.905857,35.9894341 39.8211433,37.9189641 C39.6844875,38.0456291 39.5093971,38.1089616 39.3350186,38.1089616 C39.1449815,38.1089616 38.9556562,38.0336663 38.8154416,37.8858905 C38.5464003,37.6023017 38.5613471,37.1568631 38.848182,36.8908666 C40.642502,35.2315552 41.6296983,32.9867701 41.6296983,30.5723947 C41.6296983,28.1594266 40.642502,25.9153451 38.8488938,24.2539227 C38.5613471,23.9886299 38.5471121,23.5431913 38.8154416,23.2596025 C39.0837711,22.9760137 39.5350201,22.9612361 39.8218551,23.2272326 Z M35.2409211,26.091791 C35.4992861,25.7990541 35.9491116,25.7702026 36.2451993,26.0263474 C37.4281267,27.0516301 38.1071355,28.527981 38.1071355,30.0754049 C38.1071355,31.6228289 37.4288384,33.0991798 36.2459111,34.1251662 C36.1106787,34.2419795 35.9427059,34.2996824 35.7761566,34.2996824 C35.579002,34.2996824 35.3818474,34.2187575 35.2409211,34.0597226 C34.9818443,33.7676894 35.0110261,33.3229546 35.306402,33.0668098 C36.1818537,32.3082273 36.6836369,31.2175009 36.6836369,30.0754049 C36.6836369,28.9326052 36.1818537,27.8425826 35.3071138,27.0847038 C35.0110261,26.828559 34.9818443,26.3838241 35.2409211,26.091791 Z" id="Combined-Shape" fill="#FFFFFF"></path>
        </g>
    </g>
</svg>