<?xml version="1.0" encoding="UTF-8"?>
<svg width="60px" height="60px" viewBox="0 0 60 60" version="1.1" xmlns="http://www.w3.org/2000/svg" xmlns:xlink="http://www.w3.org/1999/xlink">
    <!-- Generator: Sketch 57.1 (83088) - https://sketch.com -->
    <title>img-soothing-sounds</title>
    <desc>Created with Sketch.</desc>
    <g id="Website-Design" stroke="none" stroke-width="1" fill="none" fill-rule="evenodd">
        <g id="img-soothing-sounds">
            <circle id="Oval-2" stroke="#FFFFFF" cx="30" cy="30" r="29.5"></circle>
            <path d="M25.0505999,22.1327365 L25.0505999,16.0553845 L40.1308711,12.6002365 L40.1308711,18.6775886 L25.0505999,22.1327365 Z M20.8257689,44.3391043 C20.3273607,44.4952813 19.8241601,44.5737263 19.329175,44.5737263 L19.3284904,44.5737263 C17.8955668,44.5737263 16.7378632,43.8941069 16.4455276,42.8828789 C16.2579399,42.2310718 16.4277273,41.4944015 16.9247662,40.8083639 C17.4690444,40.0567176 18.3234585,39.4690929 19.3305443,39.1545996 C19.8289525,38.9984226 20.3321531,38.9192644 20.8278228,38.9192644 C22.2600617,38.9192644 23.41845,39.5988838 23.7101009,40.6101118 C24.1153999,42.0149914 22.7940705,43.7236672 20.8257689,44.3391043 L20.8257689,44.3391043 Z M41.5001244,36.5152801 L41.5001244,11.7130943 C41.5001244,11.4970138 41.4063305,11.2923436 41.244074,11.1575607 C41.0825021,11.0213516 40.8709525,10.9700057 40.668303,11.0170728 L24.2187785,14.7860009 C23.9052195,14.8573146 23.6813466,15.1475613 23.6813466,15.4820225 L23.6813466,38.3501812 C22.9289419,37.8089104 21.9444488,37.4929907 20.8278228,37.4929907 C20.1986509,37.4929907 19.5626327,37.5921168 18.936884,37.7882294 C17.6525244,38.1897254 16.5502755,38.9570607 15.8314175,39.9497471 C15.0653203,41.007329 14.8174854,42.195415 15.1344675,43.2936457 C15.6089138,44.9374261 17.2547563,46 19.3284904,46 L19.329175,46 C19.9576623,46 20.5936804,45.9015871 21.2194292,45.7054745 C23.8908424,44.8696781 25.5763932,42.4813829 25.0505999,40.3312753 L25.0505999,23.5925276 L40.1308711,20.1380928 L40.1308711,34.5477356 C39.379151,34.007891 38.3953425,33.6926846 37.2807704,33.6926846 C36.6515985,33.6926846 36.0155803,33.7925237 35.3898316,33.9879232 C32.6643329,34.841548 30.9582433,37.3111409 31.5874152,39.4940527 C32.0618614,41.1385462 33.7077039,42.200407 35.781438,42.2011201 L35.781438,42.2011201 C36.4106099,42.2011201 37.046628,42.1012809 37.6723768,41.9058815 C40.3506362,41.0672325 42.0382409,38.6696665 41.5001244,36.5152801 L41.5001244,36.5152801 Z" id="Fill-348" fill="#FFFFFF"></path>
        </g>
    </g>
</svg>