<?xml version="1.0" encoding="UTF-8"?>
<svg width="243px" height="80px" viewBox="0 0 243 80" version="1.1" xmlns="http://www.w3.org/2000/svg" xmlns:xlink="http://www.w3.org/1999/xlink">
    <!-- Generator: Sketch 57.1 (83088) - https://sketch.com -->
    <title>digital-meister-logo</title>
    <desc>Created with Sketch.</desc>
    <g id="Website-Design---Pre-Launch" stroke="none" stroke-width="1" fill="none" fill-rule="evenodd">
        <path d="M103.481408,-1.42108547e-14 L144.577299,80 L62.385518,80 L103.481408,-1.42108547e-14 Z M143.191216,12.0547945 L178.094575,80 L151.718416,80 L129.965427,37.800998 L143.191216,12.0547945 Z M23.1262954,40.9172651 C24.1155144,40.9172651 25.039136,41.1194781 25.8971879,41.5239102 C26.7169827,41.9283423 27.5231021,42.5841683 28.3155704,43.4914079 L26.9547179,44.7948751 C25.9163111,43.4121545 24.6511135,42.7208046 23.159087,42.7208046 C21.8200888,42.7208046 20.6969868,43.1826154 19.7897473,44.1062509 C18.8825077,45.0134905 18.4288947,46.1502555 18.4288947,47.5165802 C18.4288947,48.9266272 18.9344272,50.0879857 19.9455075,51.0006906 C20.8910041,51.8478119 21.9157323,52.2713662 23.0197226,52.2713662 C23.9597539,52.2713662 24.8041299,51.9543836 25.5528758,51.320409 C26.3016217,50.680969 26.7197108,49.9158387 26.8071556,49.024995 L23.6509614,49.024995 L23.6509614,47.2296534 L28.881226,47.2296534 L28.881226,47.6477467 C28.881226,48.5987086 28.7691891,49.440352 28.5451118,50.172702 C28.3264999,50.850399 27.9575978,51.4843641 27.4383944,52.0746164 C26.2633552,53.3972187 24.7686184,54.0585099 22.9541393,54.0585099 C21.1833826,54.0585099 19.666785,53.4190795 18.404301,52.1401996 C17.141817,50.8558545 16.5105845,49.3146634 16.5105845,47.5165802 C16.5105845,45.6802398 17.1527474,44.1226531 18.4370926,42.8437732 C19.7214378,41.5594281 21.2844897,40.9172651 23.1262954,40.9172651 Z M189.308991,40.3680053 L191.618423,53.4969698 L189.728168,53.4969698 L188.549725,46.1257681 L184.935305,54.0585099 L181.423703,46.1178591 L180.110806,53.4969698 L178.204734,53.4969698 L180.775164,40.3680053 L184.966941,49.858823 L189.308991,40.3680053 Z M2.65612183,41.1632023 C3.92953641,41.1632023 4.93513626,41.2889023 5.67295157,41.540306 C6.46541987,41.7862445 7.18409585,42.2043335 7.82900109,42.7945858 C9.13520745,43.9860209 9.78830084,45.5518054 9.78830084,47.4919864 C9.78830084,49.4376327 9.10788137,51.0116151 7.74702202,52.2139808 C7.06385969,52.8151637 6.34791632,53.2332527 5.59917041,53.4682606 C4.89961219,53.7032684 3.90767538,53.8207706 2.62333021,53.8207706 L-1.13686838e-13,53.8207706 L-1.13686838e-13,41.1632023 L2.65612183,41.1632023 Z M14.1003999,41.1632023 L14.1003999,53.8207706 L12.1902876,53.8207706 L12.1902876,41.1632023 L14.1003999,41.1632023 Z M33.193325,41.1632023 L33.193325,53.8207706 L31.2832127,53.8207706 L31.2832127,41.1632023 L33.193325,41.1632023 Z M42.6291159,41.1632023 L42.6291159,42.9585439 L39.7270568,42.9585439 L39.7270568,53.8207706 L37.8169445,53.8207706 L37.8169445,42.9585439 L34.9066876,42.9585439 L34.9066876,41.1632023 L42.6291159,41.1632023 Z M49.1464519,40.3680053 L55.1883092,53.8207706 L53.097843,53.8207706 L51.7697821,50.7465555 L46.3509656,50.7465555 L44.9409256,53.8207706 L42.883251,53.8207706 L49.1464519,40.3680053 Z M58.6806176,41.1632023 L58.6806176,52.025429 L62.4024673,52.025429 L62.4024673,53.8207706 L56.7705053,53.8207706 L56.7705053,41.1632023 L58.6806176,41.1632023 Z M211.746865,41.0481806 C213.154677,41.0481806 214.254019,41.7336217 215.044924,43.1045244 L213.550121,43.9903341 C213.270667,43.5052454 213.0044,43.188888 212.75131,43.0412523 C212.487675,42.8725258 212.147591,42.7881639 211.731047,42.7881639 C211.219595,42.7881639 210.795149,42.933161 210.457696,43.2231597 C210.120243,43.5078856 209.951519,43.866424 209.951519,44.2987857 C209.951519,44.8946011 210.394419,45.3744099 211.280233,45.7382264 L212.498222,46.2364943 C213.48949,46.6372197 214.214476,47.1262556 214.673201,47.7036165 C215.131926,48.2809775 215.361285,48.9888272 215.361285,49.827187 C215.361285,50.9502727 214.986929,51.8782545 214.238205,52.6111602 C213.484208,53.3493386 212.548318,53.7184222 211.430505,53.7184222 C210.370691,53.7184222 209.495436,53.4047011 208.804712,52.7772495 C208.124533,52.1497978 207.700087,51.2666334 207.53136,50.1277295 L209.397888,49.7164608 C209.482251,50.4335484 209.629885,50.929175 209.840793,51.2033555 C210.220427,51.7306258 210.774053,51.994257 211.501686,51.994257 C212.07641,51.994257 212.553583,51.8018062 212.933218,51.4168989 C213.312852,51.0319916 213.502667,50.5442739 213.502667,49.9537312 C213.502667,49.7164596 213.469713,49.4989639 213.403804,49.3012375 C213.337895,49.1035111 213.235079,48.9216056 213.095352,48.7555155 C212.955626,48.5894253 212.775038,48.4338829 212.553585,48.2888836 C212.332131,48.1438843 212.0685,48.0054779 211.762683,47.8736603 L210.58424,47.3833014 C208.912793,46.6767592 208.077083,45.643325 208.077083,44.2829676 C208.077083,43.3655173 208.427712,42.5983506 209.128981,41.9814444 C209.830251,41.3592654 210.70287,41.0481806 211.746865,41.0481806 Z M200.943151,41.2854511 L200.943151,43.0175253 L196.047471,43.0175253 L196.047471,45.9517698 L200.800789,45.9517698 L200.800789,47.683844 L196.047471,47.683844 L196.047471,51.7648956 L200.943151,51.7648956 L200.943151,53.4969698 L194.204671,53.4969698 L194.204671,41.2854511 L200.943151,41.2854511 Z M205.20611,41.2854511 L205.20611,53.4969698 L203.36331,53.4969698 L203.36331,41.2854511 L205.20611,41.2854511 Z M223.75275,41.2854511 L223.75275,43.0175253 L220.952959,43.0175253 L220.952959,53.4969698 L219.110158,53.4969698 L219.110158,43.0175253 L216.302458,43.0175253 L216.302458,41.2854511 L223.75275,41.2854511 Z M232.136305,41.2854511 L232.136305,43.0175253 L227.240625,43.0175253 L227.240625,45.9517698 L231.993943,45.9517698 L231.993943,47.683844 L227.240625,47.683844 L227.240625,51.7648956 L232.136305,51.7648956 L232.136305,53.4969698 L225.397825,53.4969698 L225.397825,41.2854511 L232.136305,41.2854511 Z M236.715625,41.2854511 C238.329072,41.2854511 239.494322,41.5886269 240.211409,42.1949877 C241.002315,42.8698937 241.397762,43.7609671 241.397762,44.8682347 C241.397762,45.732958 241.149948,46.476398 240.654314,47.0985769 C240.15868,47.7207558 239.504875,48.1188389 238.692879,48.2928381 L242.473388,53.4969698 L240.219318,53.4969698 L236.731443,48.4984725 L236.399264,48.4984725 L236.399264,53.4969698 L234.556464,53.4969698 L234.556464,41.2854511 L236.715625,41.2854511 Z M2.77089253,42.9585439 L1.91011231,42.9585439 L1.91011231,52.025429 L2.77089253,52.025429 C3.62894441,52.025429 4.34215518,51.9352529 4.91054623,51.754898 C5.47893729,51.5636126 5.99266765,51.2602931 6.45175273,50.8449304 C7.39178409,49.9868785 7.86179271,48.8692417 7.86179271,47.4919864 C7.86179271,46.1038006 7.3972493,44.977966 6.46814854,44.1144488 C5.63195786,43.3438417 4.39955151,42.9585439 2.77089253,42.9585439 Z M49.1136602,44.6473127 L47.1461626,48.9512139 L50.9909809,48.9512139 L49.1136602,44.6473127 Z M237.055713,43.0175253 L236.399264,43.0175253 L236.399264,46.8929425 L236.984531,46.8929425 C238.729796,46.8929425 239.602415,46.2259556 239.602415,44.8919618 C239.602415,43.6423312 238.753523,43.0175253 237.055713,43.0175253 Z M103.481408,5.84474886 L95.7950537,20.8075194 L102.568166,20.8075194 L102.568166,26.6666667 L104.39465,26.6666667 L104.39465,20.8219178 L111.17059,20.8130225 L103.481408,5.84474886 Z" id="digital-meister-logo" fill="#8D98AE" fill-rule="nonzero"></path>
    </g>
</svg>